<mxfile host="65bd71144e">
    <diagram id="b1ZrFfAVwzmerLI3TI4-" name="Page-1">
        <mxGraphModel dx="1520" dy="797" grid="1" gridSize="10" guides="1" tooltips="1" connect="1" arrows="1" fold="1" page="1" pageScale="1" pageWidth="850" pageHeight="1100" math="0" shadow="0">
            <root>
                <mxCell id="0"/>
                <mxCell id="1" parent="0"/>
                <mxCell id="2-mCETbd214UkXQiuuW6-27" style="edgeStyle=orthogonalEdgeStyle;rounded=0;orthogonalLoop=1;jettySize=auto;html=1;exitX=1;exitY=0.5;exitDx=0;exitDy=0;entryX=0.5;entryY=0.5;entryDx=0;entryDy=0;entryPerimeter=0;" parent="1" source="2-mCETbd214UkXQiuuW6-1" target="2-mCETbd214UkXQiuuW6-9" edge="1">
                    <mxGeometry relative="1" as="geometry"/>
                </mxCell>
                <mxCell id="2-mCETbd214UkXQiuuW6-1" value="Message Channel" style="rounded=0;whiteSpace=wrap;html=1;fillColor=default;strokeColor=#000000;" parent="1" vertex="1">
                    <mxGeometry x="440" y="40" width="120" height="60" as="geometry"/>
                </mxCell>
                <mxCell id="2-mCETbd214UkXQiuuW6-25" style="edgeStyle=orthogonalEdgeStyle;rounded=0;orthogonalLoop=1;jettySize=auto;html=1;exitX=1;exitY=0.5;exitDx=0;exitDy=0;entryX=0.5;entryY=0.5;entryDx=0;entryDy=0;entryPerimeter=0;" parent="1" source="2-mCETbd214UkXQiuuW6-2" target="2-mCETbd214UkXQiuuW6-10" edge="1">
                    <mxGeometry relative="1" as="geometry"/>
                </mxCell>
                <mxCell id="2-mCETbd214UkXQiuuW6-2" value="Job Channel" style="rounded=0;whiteSpace=wrap;html=1;fillColor=default;strokeColor=#000000;" parent="1" vertex="1">
                    <mxGeometry x="440" y="200" width="120" height="60" as="geometry"/>
                </mxCell>
                <mxCell id="2-mCETbd214UkXQiuuW6-26" style="edgeStyle=orthogonalEdgeStyle;rounded=0;orthogonalLoop=1;jettySize=auto;html=1;exitX=1;exitY=0.5;exitDx=0;exitDy=0;entryX=0;entryY=0.5;entryDx=0;entryDy=0;" parent="1" source="2-mCETbd214UkXQiuuW6-3" target="2-mCETbd214UkXQiuuW6-1" edge="1">
                    <mxGeometry relative="1" as="geometry"/>
                </mxCell>
                <mxCell id="2-mCETbd214UkXQiuuW6-3" value="Message Created Event" style="rounded=0;whiteSpace=wrap;html=1;fillColor=none;strokeColor=#000000;strokeWidth=1;" parent="1" vertex="1">
                    <mxGeometry x="40" y="40" width="160" height="60" as="geometry"/>
                </mxCell>
                <mxCell id="2-mCETbd214UkXQiuuW6-21" style="edgeStyle=orthogonalEdgeStyle;rounded=0;orthogonalLoop=1;jettySize=auto;html=1;exitX=1;exitY=0.5;exitDx=0;exitDy=0;entryX=0;entryY=0.5;entryDx=0;entryDy=0;" parent="1" source="2-mCETbd214UkXQiuuW6-4" target="2-mCETbd214UkXQiuuW6-18" edge="1">
                    <mxGeometry relative="1" as="geometry"/>
                </mxCell>
                <mxCell id="2-mCETbd214UkXQiuuW6-4" value="Job Created Event" style="rounded=0;whiteSpace=wrap;html=1;fillColor=none;strokeColor=#000000;strokeWidth=1;" parent="1" vertex="1">
                    <mxGeometry x="40" y="440" width="160" height="60" as="geometry"/>
                </mxCell>
                <mxCell id="2-mCETbd214UkXQiuuW6-9" value="User (receiver)" style="shape=umlActor;verticalLabelPosition=bottom;verticalAlign=top;html=1;outlineConnect=0;fillColor=none;strokeColor=#000000;" parent="1" vertex="1">
                    <mxGeometry x="760" y="40" width="30" height="60" as="geometry"/>
                </mxCell>
                <mxCell id="2-mCETbd214UkXQiuuW6-10" value="Job's client &lt;br&gt;or &lt;br&gt;worker&lt;br&gt;&amp;nbsp;from job" style="shape=umlActor;verticalLabelPosition=bottom;verticalAlign=top;html=1;outlineConnect=0;fillColor=none;strokeColor=#000000;" parent="1" vertex="1">
                    <mxGeometry x="760" y="200" width="30" height="60" as="geometry"/>
                </mxCell>
                <mxCell id="2-mCETbd214UkXQiuuW6-20" style="edgeStyle=orthogonalEdgeStyle;rounded=0;orthogonalLoop=1;jettySize=auto;html=1;exitX=1;exitY=0.5;exitDx=0;exitDy=0;entryX=0;entryY=0.5;entryDx=0;entryDy=0;" parent="1" source="2-mCETbd214UkXQiuuW6-11" target="2-mCETbd214UkXQiuuW6-18" edge="1">
                    <mxGeometry relative="1" as="geometry"/>
                </mxCell>
                <mxCell id="2-mCETbd214UkXQiuuW6-11" value="Job Assigned Event" style="rounded=0;whiteSpace=wrap;html=1;fillColor=none;strokeColor=#000000;strokeWidth=1;" parent="1" vertex="1">
                    <mxGeometry x="40" y="520" width="160" height="60" as="geometry"/>
                </mxCell>
                <mxCell id="2-mCETbd214UkXQiuuW6-22" style="edgeStyle=orthogonalEdgeStyle;rounded=0;orthogonalLoop=1;jettySize=auto;html=1;exitX=1;exitY=0.5;exitDx=0;exitDy=0;entryX=0;entryY=0.5;entryDx=0;entryDy=0;" parent="1" source="2-mCETbd214UkXQiuuW6-12" target="2-mCETbd214UkXQiuuW6-2" edge="1">
                    <mxGeometry relative="1" as="geometry"/>
                </mxCell>
                <mxCell id="2-mCETbd214UkXQiuuW6-12" value="Job Terminated Event" style="rounded=0;whiteSpace=wrap;html=1;fillColor=none;strokeColor=#000000;strokeWidth=1;" parent="1" vertex="1">
                    <mxGeometry x="40" y="200" width="160" height="60" as="geometry"/>
                </mxCell>
                <mxCell id="2-mCETbd214UkXQiuuW6-19" style="edgeStyle=orthogonalEdgeStyle;rounded=0;orthogonalLoop=1;jettySize=auto;html=1;exitX=1;exitY=0.5;exitDx=0;exitDy=0;entryX=0;entryY=0.5;entryDx=0;entryDy=0;" parent="1" source="2-mCETbd214UkXQiuuW6-13" target="2-mCETbd214UkXQiuuW6-2" edge="1">
                    <mxGeometry relative="1" as="geometry"/>
                </mxCell>
                <mxCell id="2-mCETbd214UkXQiuuW6-13" value="Job Update Status Event" style="rounded=0;whiteSpace=wrap;html=1;fillColor=none;strokeColor=#000000;strokeWidth=1;" parent="1" vertex="1">
                    <mxGeometry x="40" y="120" width="160" height="60" as="geometry"/>
                </mxCell>
                <mxCell id="2-mCETbd214UkXQiuuW6-23" style="edgeStyle=orthogonalEdgeStyle;rounded=0;orthogonalLoop=1;jettySize=auto;html=1;exitX=1;exitY=0.5;exitDx=0;exitDy=0;entryX=0;entryY=0.5;entryDx=0;entryDy=0;" parent="1" source="2-mCETbd214UkXQiuuW6-14" target="2-mCETbd214UkXQiuuW6-2" edge="1">
                    <mxGeometry relative="1" as="geometry"/>
                </mxCell>
                <mxCell id="2-mCETbd214UkXQiuuW6-14" value="Job File Updated Event" style="rounded=0;whiteSpace=wrap;html=1;fillColor=none;strokeColor=#000000;strokeWidth=1;" parent="1" vertex="1">
                    <mxGeometry x="40" y="280" width="160" height="60" as="geometry"/>
                </mxCell>
                <mxCell id="2-mCETbd214UkXQiuuW6-16" value="Workers" style="shape=umlActor;verticalLabelPosition=bottom;verticalAlign=top;html=1;outlineConnect=0;fillColor=none;strokeColor=#000000;" parent="1" vertex="1">
                    <mxGeometry x="760" y="480" width="30" height="60" as="geometry"/>
                </mxCell>
                <mxCell id="2-mCETbd214UkXQiuuW6-24" style="edgeStyle=orthogonalEdgeStyle;rounded=0;orthogonalLoop=1;jettySize=auto;html=1;exitX=1;exitY=0.5;exitDx=0;exitDy=0;entryX=0.5;entryY=0.5;entryDx=0;entryDy=0;entryPerimeter=0;" parent="1" source="2-mCETbd214UkXQiuuW6-18" target="2-mCETbd214UkXQiuuW6-16" edge="1">
                    <mxGeometry relative="1" as="geometry"/>
                </mxCell>
                <mxCell id="2-mCETbd214UkXQiuuW6-18" value="Job Workers Channel" style="rounded=0;whiteSpace=wrap;html=1;fillColor=default;strokeColor=#000000;" parent="1" vertex="1">
                    <mxGeometry x="440" y="480" width="120" height="60" as="geometry"/>
                </mxCell>
                <mxCell id="8yiLaX85FzKRlYgKLBc3-1" value="Job Update Event" style="rounded=0;whiteSpace=wrap;html=1;fillColor=none;strokeColor=#000000;strokeWidth=1;" parent="1" vertex="1">
                    <mxGeometry x="40" y="360" width="160" height="60" as="geometry"/>
                </mxCell>
                <mxCell id="8yiLaX85FzKRlYgKLBc3-2" value="" style="endArrow=classic;html=1;rounded=0;entryX=0;entryY=0.5;entryDx=0;entryDy=0;exitX=1;exitY=0.5;exitDx=0;exitDy=0;" parent="1" source="8yiLaX85FzKRlYgKLBc3-1" target="2-mCETbd214UkXQiuuW6-2" edge="1">
                    <mxGeometry width="50" height="50" relative="1" as="geometry">
                        <mxPoint x="400" y="640" as="sourcePoint"/>
                        <mxPoint x="450" y="590" as="targetPoint"/>
                        <Array as="points">
                            <mxPoint x="320" y="390"/>
                            <mxPoint x="320" y="230"/>
                        </Array>
                    </mxGeometry>
                </mxCell>
                <mxCell id="CN0zmEv2hQMlogzIL2Qp-4" value="Message Created Event" style="rounded=0;whiteSpace=wrap;html=1;fillColor=none;strokeColor=#000000;strokeWidth=1;" parent="1" vertex="1">
                    <mxGeometry x="40" y="40" width="160" height="60" as="geometry"/>
                </mxCell>
                <mxCell id="CN0zmEv2hQMlogzIL2Qp-5" value="Job Update Status Event" style="rounded=0;whiteSpace=wrap;html=1;fillColor=none;strokeColor=#000000;strokeWidth=1;" parent="1" vertex="1">
                    <mxGeometry x="40" y="120" width="160" height="60" as="geometry"/>
                </mxCell>
                <mxCell id="CN0zmEv2hQMlogzIL2Qp-6" value="Job Terminated Event" style="rounded=0;whiteSpace=wrap;html=1;fillColor=none;strokeColor=#000000;strokeWidth=1;" parent="1" vertex="1">
                    <mxGeometry x="40" y="200" width="160" height="60" as="geometry"/>
                </mxCell>
                <mxCell id="CN0zmEv2hQMlogzIL2Qp-7" value="Job File Updated Event" style="rounded=0;whiteSpace=wrap;html=1;fillColor=none;strokeColor=#000000;strokeWidth=1;" parent="1" vertex="1">
                    <mxGeometry x="40" y="280" width="160" height="60" as="geometry"/>
                </mxCell>
                <mxCell id="CN0zmEv2hQMlogzIL2Qp-8" value="Job Update Event" style="rounded=0;whiteSpace=wrap;html=1;fillColor=none;strokeColor=#000000;strokeWidth=1;" parent="1" vertex="1">
                    <mxGeometry x="40" y="360" width="160" height="60" as="geometry"/>
                </mxCell>
                <mxCell id="CN0zmEv2hQMlogzIL2Qp-9" value="Message Created Event" style="rounded=0;whiteSpace=wrap;html=1;fillColor=default;strokeColor=#000000;strokeWidth=1;" parent="1" vertex="1">
                    <mxGeometry x="40" y="40" width="160" height="60" as="geometry"/>
                </mxCell>
                <mxCell id="CN0zmEv2hQMlogzIL2Qp-10" value="Job Update Status Event" style="rounded=0;whiteSpace=wrap;html=1;fillColor=default;strokeColor=#000000;strokeWidth=1;" parent="1" vertex="1">
                    <mxGeometry x="40" y="120" width="160" height="60" as="geometry"/>
                </mxCell>
                <mxCell id="CN0zmEv2hQMlogzIL2Qp-11" value="Job Closed Event" style="rounded=0;whiteSpace=wrap;html=1;fillColor=default;strokeColor=#000000;strokeWidth=1;" parent="1" vertex="1">
                    <mxGeometry x="40" y="200" width="160" height="60" as="geometry"/>
                </mxCell>
                <mxCell id="CN0zmEv2hQMlogzIL2Qp-12" value="Job File Updated Event" style="rounded=0;whiteSpace=wrap;html=1;fillColor=default;strokeColor=#000000;strokeWidth=1;" parent="1" vertex="1">
                    <mxGeometry x="40" y="280" width="160" height="60" as="geometry"/>
                </mxCell>
                <mxCell id="CN0zmEv2hQMlogzIL2Qp-13" value="Job Update Event" style="rounded=0;whiteSpace=wrap;html=1;fillColor=default;strokeColor=#000000;strokeWidth=1;" parent="1" vertex="1">
                    <mxGeometry x="40" y="360" width="160" height="60" as="geometry"/>
                </mxCell>
                <mxCell id="CN0zmEv2hQMlogzIL2Qp-14" value="Job Assigned Event" style="rounded=0;whiteSpace=wrap;html=1;fillColor=default;strokeColor=#000000;strokeWidth=1;" parent="1" vertex="1">
                    <mxGeometry x="40" y="520" width="160" height="60" as="geometry"/>
                </mxCell>
                <mxCell id="CN0zmEv2hQMlogzIL2Qp-15" value="Job Created Event" style="rounded=0;whiteSpace=wrap;html=1;fillColor=default;strokeColor=#000000;strokeWidth=1;" parent="1" vertex="1">
                    <mxGeometry x="40" y="440" width="160" height="60" as="geometry"/>
                </mxCell>
            </root>
        </mxGraphModel>
    </diagram>
</mxfile>